<svg width="320" height="320" viewBox="0 0 320 320" fill="none" xmlns="http://www.w3.org/2000/svg">
<path d="M185 60L235 110H185V60Z" fill="#F0B501"/>
<path d="M85 103H135V216H85V103Z" fill="#2BA24C"/>
<path d="M0 41H50V90H0V41Z" fill="#E43E2B"/>
<path d="M40 0H90V50H40V0Z" fill="#E43E2B"/>
<path d="M0 25C0 11.1929 11.1929 0 25 0H50V50H0V25Z" fill="#E43E2B"/>
<path d="M40 270H90V320H40V270Z" fill="#2BA24C"/>
<path d="M270 230H320V276H270V230Z" fill="#3B7DED"/>
<path d="M270 270H320V295C320 308.807 308.807 320 295 320H270V270Z" fill="#3B7DED"/>
<path d="M230 270H279V320H230V270Z" fill="#3B7DED"/>
<path d="M0 270H50V320H25C11.1929 320 0 308.807 0 295V270Z" fill="#2BA24C"/>
<path d="M0 230H50V276H0V230Z" fill="#2BA24C"/>
<path d="M270 41H320V90H270V41Z" fill="#F0B501"/>
<path d="M270 0H295C308.807 0 320 11.1929 320 25V50H270V0Z" fill="#F0B501"/>
<path d="M230 0H279V50H230V0Z" fill="#F0B501"/>
<rect x="125" y="210" width="68" height="50" fill="#3B7DED"/>
<rect x="125" y="60" width="60" height="50" fill="#E43E2B"/>
<path d="M185 110H235V224H185V110Z" fill="#F0B501"/>
<path d="M185 210H235V235C235 248.807 223.807 260 210 260H185V210Z" fill="#0066DB"/>
<path d="M85 85C85 71.1929 96.1929 60 110 60H135V110H85V85Z" fill="#C61D19"/>
<path d="M85 210H135V260H110C96.1929 260 85 248.807 85 235V210Z" fill="#008429"/>
</svg>
