<svg width="320" height="320" viewBox="0 0 320 320" fill="none" xmlns="http://www.w3.org/2000/svg">
<g clip-path="url(#clip0_2347_23)">
<path d="M185 60L235 110H185V60Z" fill="#F0B501"/>
<path d="M85 110H135V210H85V110Z" fill="#2BA24C"/>
<path d="M85 85C85 71.1929 96.1929 60 110 60H135V110H85V85Z" fill="#C61D19"/>
<path d="M185 210H235V235C235 248.807 223.807 260 210 260H185V210Z" fill="#0066DB"/>
<path d="M85 210H135V260H110C96.1929 260 85 248.807 85 235V210Z" fill="#008429"/>
<path d="M0 50H50V90H0V50Z" fill="#E43E2B"/>
<path d="M50 0H90V50H50V0Z" fill="#E43E2B"/>
<path d="M0 25C0 11.1929 11.1929 0 25 0H50V50H0V25Z" fill="#E43E2B"/>
<path d="M50 270H90V320H50V270Z" fill="#2BA24C"/>
<path d="M270 230H320V270H270V230Z" fill="#3B7DED"/>
<path d="M270 270H320V295C320 308.807 308.807 320 295 320H270V270Z" fill="#3B7DED"/>
<path d="M230 270H270V320H230V270Z" fill="#3B7DED"/>
<path d="M0 270H50V320H25C11.1929 320 0 308.807 0 295V270Z" fill="#2BA24C"/>
<path d="M0 230H50V270H0V230Z" fill="#2BA24C"/>
<path d="M270 50H320V90H270V50Z" fill="#F0B501"/>
<path d="M270 0H295C308.807 0 320 11.1929 320 25V50H270V0Z" fill="#F0B501"/>
<path d="M230 0H270V50H230V0Z" fill="#F0B501"/>
<path d="M185 210H135V260H185V210Z" fill="#3B7DED"/>
<path d="M185 60H135V110H185V60Z" fill="#E43E2B"/>
<path d="M185 110H235V210H185V110Z" fill="#F0B501"/>
</g>
<defs>
<clipPath id="clip0_2347_23">
<rect width="320" height="320" fill="white"/>
</clipPath>
</defs>
</svg>
